<svg
    stroke="currentColor"
    fill="invert"
    strokeWidth="0"
    viewBox="0 0 112 83"
    className="h-5 w-5 duration-300"
    aria-hidden="true"
    height="2em"
    width="2em"
    xmlns="http://www.w3.org/2000/svg"
  >
    <g id="Group 751">
      <path
        id="Vector"
        d="M103.917 77.417C103.917 75.1282 104.917 73.7164 106.315 73.7164C107.035 73.7164 107.694 74.0586 108.174 74.6576V79.8554C107.614 80.6468 106.935 81.0746 106.195 81.0746C104.857 81.0746 103.917 79.7058 103.917 77.417ZM105.137 82.9998C106.375 82.9998 107.514 82.2726 108.174 81.0747V82.7645H111.331C110.931 81.9303 110.852 80.433 110.852 79.342V67.235L107.674 67.7484C108.094 68.5398 108.174 70.0372 108.174 71.1922V73.0745C107.534 72.2402 106.615 71.791 105.636 71.791C103.158 71.791 101.18 74.1012 101.18 77.4594C101.18 80.8391 102.899 82.9996 105.137 82.9996M94.0064 82.7645H97.6032C97.2436 81.9731 97.1237 80.4543 97.1237 79.2137V76.0265C97.7432 74.8928 98.5225 74.2084 99.5816 74.2084C100.061 74.2084 100.561 74.294 100.88 74.4223L100.721 71.9196C100.541 71.834 100.201 71.7699 99.8614 71.7699C98.7823 71.7699 97.7032 72.6897 97.1238 74.7432V71.9196L93.9467 72.433C94.3663 73.2458 94.4463 74.7432 94.4463 75.8768V79.2137C94.4463 80.4543 94.3465 81.9731 94.0067 82.7645M87.852 81.1389C86.4533 81.1389 85.514 79.7912 85.514 77.417C85.514 75.0428 86.4533 73.6952 87.812 73.6952C89.2108 73.6952 90.15 75.0428 90.15 77.417C90.15 79.7912 89.2308 81.1389 87.852 81.1389ZM87.832 82.9998C90.7295 82.9998 92.9075 80.6255 92.9075 77.3528C92.9075 74.1229 90.7493 71.7914 87.832 71.7914C84.9345 71.7914 82.7565 74.1444 82.7565 77.4172C82.7565 80.6685 84.9147 83 87.832 83M77.0616 82.7645H80.6783C80.3186 81.9731 80.1988 80.4543 80.1988 79.2137V73.7806H82.5167V72.0266H80.1788C80.1588 71.5133 80.1388 70.9999 80.1388 70.4865C80.1388 69.4598 80.5584 68.9679 81.3777 68.9679C81.7972 68.9679 82.2968 69.0962 82.7365 69.3315L82.4967 67.278C82.0172 67.1069 81.3978 67 80.8381 67C78.7599 67 77.5011 68.4118 77.5011 70.7861V72.0268H75.8025L75.4229 73.7807H77.5011V79.2139C77.5011 80.4545 77.4011 81.9733 77.0615 82.7647M72.8055 82.9786C73.5849 82.9786 74.4041 82.7432 74.9436 82.4652L75.0834 80.7539C74.7638 80.9037 74.3041 81.0961 73.8645 81.0961C73.1052 81.0961 72.6655 80.6684 72.6655 79.7914V73.7807H74.8037L75.1834 72.0268H72.6655V69.139L70.0078 69.738V72.0268H68.5491L68.6291 73.7807H70.0078V80.0908C70.0078 81.9518 70.9869 82.9786 72.8053 82.9786M61.1958 82.7645H64.7928C64.433 81.9731 64.3132 80.4543 64.3132 79.2137V76.0265C64.9326 74.8928 65.7121 74.2084 66.771 74.2084C67.2506 74.2084 67.7501 74.294 68.0699 74.4223L67.9101 71.9196C67.7303 71.834 67.3905 71.7699 67.0509 71.7699C65.9718 71.7699 64.8928 72.6897 64.3134 74.7432V71.9196L61.1363 72.433C61.5558 73.2458 61.6358 74.7432 61.6358 75.8768V79.2137C61.6358 80.4543 61.536 81.9731 61.1961 82.7645M53.3032 79.877C53.3032 79.1711 53.7028 78.6149 54.6619 78.4224L56.76 77.9518V79.8128C56.2404 80.4973 55.4411 81.1176 54.6018 81.1176C53.7825 81.1176 53.3031 80.6256 53.3031 79.877M53.5829 82.9786C54.9217 82.9786 56.0806 82.0587 56.76 80.8822C56.78 81.5453 56.8598 82.3367 56.9997 82.7645H59.9171C59.5575 82.1014 59.4175 80.925 59.4175 80.048V75.8128C59.4175 73.2887 58.0388 71.7914 55.3211 71.7914C54.0823 71.7914 52.7833 72.1123 51.6843 72.7113L51.4046 74.8503C52.7833 73.9948 53.7225 73.6953 54.7216 73.6953C56.0005 73.6953 56.7597 74.337 56.7597 75.7915V76.4546L54.0821 76.9252C51.7842 77.3317 50.7252 78.4226 50.7252 80.1124C50.7252 81.8022 51.8841 82.9787 53.5826 82.9787M37.4575 82.7645H41.3541C40.9544 81.9303 40.8546 79.9624 40.8546 78.6148V76.1762H46.3696V78.6148C46.3696 79.9624 46.2498 81.9303 45.8501 82.7645H49.7665C49.3668 81.9303 49.247 79.9624 49.247 78.6148V71.941C49.247 70.5934 49.3668 68.6255 49.7665 67.7913H45.8501C46.2498 68.6255 46.3696 70.5934 46.3696 71.941V74.0586H40.8546V71.941C40.8546 70.5934 40.9544 68.6255 41.3541 67.7913H37.4575C37.8373 68.6255 37.9772 70.5934 37.9772 71.941V78.6148C37.9772 79.9624 37.8373 81.9303 37.4575 82.7645ZM28.9453 73.6523C30.0244 73.6523 30.8237 74.4651 31.0235 76.1764H26.9073C27.1071 74.6149 27.8264 73.6523 28.9455 73.6523M29.505 82.9786C30.704 82.9786 32.0227 82.5935 32.822 81.9946L33.0618 79.9838C32.1026 80.7111 31.0236 81.0961 29.9646 81.0961C28.246 81.0961 27.1071 79.9838 26.8873 77.8877H33.5614C33.6414 74.1015 31.763 71.7914 28.9255 71.7914C26.0681 71.7914 24.1697 74.2727 24.1697 77.3957C24.1697 80.6685 26.2879 82.9786 29.505 82.9786ZM13.3392 82.7645H16.8762C16.5565 82.0158 16.4567 80.4758 16.4567 79.2993V74.9785C16.9961 74.294 17.6356 73.802 18.4149 73.802C19.3142 73.802 20.0134 74.4651 20.0134 75.7272V79.2993C20.0134 80.4758 19.9135 82.0158 19.5938 82.7645H23.1506C22.8109 81.9731 22.6911 80.4543 22.6911 79.2137V75.3421C22.6911 73.1175 21.472 71.7913 19.6338 71.7913C18.2549 71.7913 17.1759 72.6041 16.4567 73.8447V67.2352L13.2794 67.7485C13.6991 68.5399 13.779 70.0373 13.779 71.1923V79.2137C13.779 80.4543 13.679 81.9731 13.3392 82.7645ZM4.56725 82.7645H8.54381C8.14408 81.9303 8.00427 79.9624 8.00427 78.6148V69.8661H8.62379C10.0025 69.8661 11.3213 70.0159 12.6002 70.7004L12.1606 67.7914H0.770626L0.331055 70.7004C1.60992 70.0159 3.00861 69.8661 4.38745 69.8661H5.12678V78.6148C5.12678 79.9624 4.98682 81.9303 4.56725 82.7645Z"
      />
      <path
        id="Vector_2"
        d="M71.0611 56.9933L70.8059 55.5108C70.6784 54.0707 71.0185 52.7152 71.6565 51.7833C73.1875 49.496 75.0588 48.1514 75.0588 43.1846C75.0588 38.7794 71.7416 35.6448 67.7013 35.6448C66.7779 35.6448 66.1444 35.6036 65.0651 35.1138C65.0589 35.1222 65.0601 35.1205 65.0539 35.1288C66.6392 36.8766 66.7231 40.3072 66.7231 40.7701H66.6917C65.6284 37.4663 63.4482 35.0518 59.8758 33.3576C60.0459 34.9672 59.5524 37.0427 59.4249 37.551H59.4079C59.4079 37.5086 59.4079 32.8068 55.8779 30.689L54.8997 30.0959C54.1767 29.6724 54.0066 29.3758 53.7515 28.2745L52.5182 22.8951H49.5866C49.5845 22.885 49.5849 22.8869 49.5828 22.8768L53.1135 21.3278C53.8365 21.0313 54.3893 20.65 54.5169 20.0571C54.3468 20.1841 54.0491 20.3535 53.5387 20.3535C52.9432 20.3535 52.3904 20.1418 52.0502 19.6334H54.3893C54.772 19.6334 55.0698 19.337 55.0698 18.998V18.1122C55.0698 17.9017 54.8985 17.731 54.6871 17.731H52.6524C52.4789 17.731 52.3382 17.8711 52.3382 18.0439V18.0886C52.3382 18.1758 52.3958 18.2892 52.4664 18.3408L52.7082 18.5177C52.7887 18.5766 52.8363 18.6702 52.8363 18.7698C52.8363 18.9426 52.6956 19.0827 52.5221 19.0827H51.3697V18.0495C51.3697 17.5837 51.7524 17.2447 52.1778 17.2447H54.3747C54.3747 17.244 54.375 17.2255 54.3747 17.2252C53.9913 17.0082 53.3261 16.7953 53.3261 16.7953C53.8364 16.4565 54.2192 15.7787 54.3468 14.7621C54.3468 14.7621 52.9149 15.0125 52.9007 15.0162C52.5578 15.1047 52.1088 15.1496 51.8073 15.5346L51.0276 14.6998C51.8533 14.4781 53.8243 13.951 53.9564 13.9151C55.2877 13.5594 56.7186 12.9808 57.7642 12.3159C60.3565 10.6677 61.594 8.24233 61.9074 6.25406L61.2009 5.54031C60.9122 7.25393 60.0821 8.6776 58.9156 9.83782C59.0437 9.43767 59.1246 9.02251 59.1546 8.60395C59.1703 8.36032 59.1733 8.11655 59.165 7.87334C59.6379 7.05166 60.104 5.609 60.0936 4.4502L59.3239 3.72116C59.3631 4.4325 59.1143 5.32019 58.8211 5.80051C58.3376 4.00416 56.8894 1.71688 54.7301 0L54.1588 0.568988C54.9232 1.35668 56.2339 2.7795 56.7678 3.8366C54.943 3.28192 53.0163 3.08616 51.6418 3.07582L50.8229 3.89142C53.475 3.98037 56.1814 4.85503 57.539 5.51594C57.8066 6.27785 57.9354 7.10676 57.9354 7.71371C57.9354 9.49546 57.3675 10.8922 55.3752 11.9217C55.7735 11.0058 55.9544 9.97394 56.0278 8.97534L55.282 8.23128C55.2641 9.09092 54.5432 11.5842 53.4864 12.5566C53.2937 12.6002 52.1174 12.8632 51.6832 12.9602C52.6989 11.116 53.4983 8.55763 53.6425 6.59953L52.8886 5.84725C52.7824 7.54586 51.3464 11.0533 49.8752 13.0813C49.6138 13.4153 49.3514 13.7008 49.0948 13.9224C49.0837 13.9138 51.4278 16.3715 51.4278 16.3715H50.1792C49.4562 16.3715 49.0309 16.4138 48.563 16.9645L48.3079 17.261C48.0102 17.6845 47.4485 18.0235 46.9617 18.0235C46.1536 18.0235 45.6444 17.3359 45.586 16.9222H47.755L48.1802 16.4563V16.3716C47.3482 16.3716 47.322 15.4821 46.3514 15.4821C45.9262 15.4821 45.5008 15.6515 45.2031 15.948V15.1008C45.5858 14.8043 46.3089 14.5501 47.3296 14.5501H48.5629L47.8824 13.8723C47.8824 13.8723 46.1438 13.428 45.9909 13.3877C46.0399 13.2352 46.5181 11.7013 46.5181 10.2119C46.5181 8.03043 45.8582 5.88889 44.9154 3.93674L44.2353 4.61848C44.6088 5.65249 45.1926 7.52419 45.1926 9.57832C45.1926 10.7086 44.9535 11.8271 44.5354 12.876C42.8392 11.6099 40.8077 8.85565 40.5812 4.82047L39.7822 5.61623C39.8378 8.76429 41.2795 11.4533 41.9871 12.3364C41.0074 12.0792 38.2351 11.3626 37.1649 11.0878C36.6137 10.618 35.552 9.12988 35.2002 7.40931L34.4902 8.1164C34.5953 8.9473 34.9773 10.0023 35.2817 10.6115C34.9388 10.5239 34.597 10.4293 34.2578 10.3259C33.4842 9.59263 32.8184 8.76585 32.3046 7.84119L32.3131 7.84374C33.0487 4.79639 36.4301 2.61647 38.4877 2.18332L37.8109 1.50923C35.3161 2.15966 32.8127 3.80445 31.574 6.16284C31.2304 5.12529 31.044 4.03547 30.968 2.94381C30.9134 2.1098 30.9144 1.26744 30.9226 0.430176L30.0622 1.28713C30.049 1.60144 30.0361 1.91603 30.0328 2.23218C29.9948 5.8668 30.8861 7.91612 31.7888 9.35537C29.8769 8.52958 28.2779 6.74131 28.0817 4.48392L27.3311 5.23152C27.4916 7.58977 29.5363 9.44334 30.8827 10.2222C32.341 11.0659 33.9402 11.6111 35.5611 12.0347C37.7295 12.6591 41.0939 13.6202 43.6717 14.3604V15.8845C43.6609 15.8862 43.6639 15.8858 43.6532 15.8873C43.4134 15.1696 42.5903 14.8866 41.9281 14.8042L38.866 14.4654C39.0786 16.6679 40.5247 18.1505 42.7787 18.447C41.8431 21.3697 40.7798 25.6902 40.7798 28.6552C40.7798 30.2649 41.0775 32.0014 41.3753 32.8063C41.7155 33.7805 41.8005 34.9242 41.5879 36.1948C41.4604 36.915 41.2052 38.1433 41.035 39.0752C40.8224 40.2612 40.7018 41.7084 41.2476 43.2263C42.687 47.2293 44.3948 46.5301 44.6499 48.8176L45.458 56.0184L38.228 55.2559L37.4199 60H82.246L82.3311 58.2633L71.0608 56.9926L71.0611 56.9933ZM48.5205 48.9877L50.9446 49.6654L48.6906 54.2401L48.5205 48.9878V48.9877ZM54.6022 55.2566L54.3046 56.9933L50.8172 56.6121L55.1126 50.9361L57.1115 51.5292C58.0047 51.8257 59.323 52.0799 60.8542 52.0799H61.8749C62.5979 54.4096 63.7462 55.045 64.5968 56.3157L54.6024 55.2567L54.6022 55.2566Z"
      />
    </g>
  </svg>
